<?xml version="1.0" encoding="UTF-8" standalone="no"?>
<!-- Creator: CorelDRAW -->

<svg
   xml:space="preserve"
   width="24"
   height="24"
   version="1.1"
   style="clip-rule:evenodd;fill-rule:evenodd;image-rendering:optimizeQuality;shape-rendering:geometricPrecision;text-rendering:geometricPrecision"
   viewBox="0 0 32 36"
   id="svg2"
   sodipodi:docname="ResearchGate_icon_SVG.svg"
   xmlns:inkscape="http://www.inkscape.org/namespaces/inkscape"
   xmlns:sodipodi="http://sodipodi.sourceforge.net/DTD/sodipodi-0.dtd"
   xmlns="http://www.w3.org/2000/svg"
   xmlns:svg="http://www.w3.org/2000/svg"><sodipodi:namedview
   id="namedview2"
   pagecolor="#ffffff"
   bordercolor="#000000"
   borderopacity="0.25"
   inkscape:showpageshadow="2"
   inkscape:pageopacity="0.0"
   inkscape:pagecheckerboard="0"
   inkscape:deskcolor="#d1d1d1" />
 <defs
   id="defs1"><style
     type="text/css"
     id="style1">
   <![CDATA[
    .fil0 {fill:#04D4AC;fill-rule:nonzero}
    .fil1 {fill:white;fill-rule:nonzero}
   ]]>
  </style></defs>
 <g
   id="Capa_x0020_1"
   inkscape:label="Capa 1"
   inkscape:groupmode="layer">
  <metadata
   id="CorelCorpID_0Corel-Layer" />
  <path
   id="path1"
   style="fill:#ffffff;fill-opacity:1;stroke:none;stroke-width:0.4;stroke-dasharray:none;stroke-opacity:1"
   class="fil0"
   d="M 16.019531,-0.06054687 C 7.1695401,-0.06054687 0,7.120712 0,15.970703 0,24.820694 7.1695401,32 16.019531,32 c 8.839991,0 16.019531,-7.179306 16.019531,-16.029297 0,-8.849991 -7.17954,-16.03124987 -16.019531,-16.03124987 z m 4.814453,6.90234377 c 0.88541,-0.037156 1.812657,0.2514068 2.285157,0.8476562 0.359999,0.4499996 0.330077,0.5902346 -0.169922,0.7402344 -0.39,0.1299999 -0.390001,0.1295309 -0.75,-0.2304687 -0.849999,-0.8199992 -2.320079,-0.5189834 -2.580078,0.5410156 -0.13,0.4699995 -0.118281,2.4601566 0.01172,2.9101566 0.35,1.269998 2.45836,1.269998 2.81836,0 0.22,-0.81 0.171171,-0.869922 -0.798828,-0.919922 -0.47,-0.02 -0.470703,-0.02016 -0.470703,-0.410157 0,-0.3799991 0.0011,-0.3801558 1.121093,-0.4101558 1.449999,-0.03 1.429375,-0.050233 1.359375,1.0097658 -0.09,1.329999 -0.450313,1.96961 -1.320312,2.349609 -0.57,0.24 -1.34922,0.330703 -1.949219,0.220703 -1.549998,-0.289999 -2.060469,-1.23969 -1.980469,-3.6796871 0.04,-1.3499987 0.149923,-1.7212506 0.669922,-2.28125 0.4025,-0.4331246 1.065255,-0.6586011 1.753906,-0.6875 z M 11.375,10.791016 c 2.880114,-0.01559 3.580392,0.189297 4.525391,1.029296 1.129998,1.009999 1.288671,2.549846 0.388671,3.839844 -0.399999,0.58 -1.198359,1.199688 -1.818359,1.429688 -0.29,0.11 -0.53125,0.229531 -0.53125,0.269531 0,0.12 0.920235,1.43086 1.490235,2.130859 1.519998,1.849999 2.339453,2.569063 3.189453,2.789063 0.529999,0.14 0.681249,0.290781 0.53125,0.550781 -0.16,0.27 -0.960392,0.330625 -1.900391,0.140625 -1.429999,-0.28 -2.279221,-1.110081 -4.449219,-4.330078 -0.719999,-1.079999 -0.719922,-1.080859 -1.419922,-1.130859 -1.029999,-0.07 -0.949921,-0.250467 -0.919921,2.019531 0.04,2.579997 0.01,2.521484 1.5,2.771484 0.389999,0.06 0.419921,0.08836 0.419921,0.31836 0,0.259999 -0.0011,0.26125 -2.6210934,0.28125 -2.4599975,0.02 -2.6199219,0.0094 -2.6699218,-0.140625 -0.1,-0.29 0.049844,-0.429297 0.5898437,-0.529297 0.6099994,-0.11 0.9297657,-0.361251 1.0097656,-0.78125 0.04,-0.16 0.05125,-2.318831 0.03125,-4.798828 -0.03,-5.209995 0.028358,-4.901329 -0.9316406,-5.111329 -0.5999994,-0.129999 -0.7889843,-0.269765 -0.7089844,-0.509765 0.06,-0.16 0.1899246,-0.16875 2.9199219,-0.21875 0.507499,-0.01 0.963555,-0.01731 1.375,-0.01953 z m 0.445312,0.949218 c -1.329998,0 -1.329609,5.5e-4 -1.349609,2.310547 -0.02,1.269999 -0.01047,2.369688 0.01953,2.429688 0.09,0.21 2.339688,0.09938 2.929688,-0.140625 1.999998,-0.819999 2.149998,-3.568907 0.25,-4.378906 -0.49,-0.21 -0.619611,-0.220704 -1.849609,-0.220704 z" />
  
 </g>
</svg>
